# xmcd
#
# Track frame offsets: 
#        150
#        18642
#        31672
#        43835
#        59927
#        72422
#        88987
#        104330
#        118407
#        134275
#
# Disc length: 1996 seconds
#
# Revision: 4
# Processed by: cddbd v1.5.1PL0 Copyright (c) Steve Scherf et al.
# Submitted via: ExactAudioCopy v0.95a5
#
DISCID=9a07ca0a
DTITLE=Reba McEntire - Reba McEntire's Greatest Hits
DYEAR=1987
DGENRE=Country
TTITLE0=Just A Little Love
TTITLE1=He Broke Your Memory Last Night
TTITLE2=How Blue
TTITLE3=Somebody Should Leave
TTITLE4=Have I Got A Deal For You
TTITLE5=Only In My Mind
TTITLE6=Whoever's In New England
TTITLE7=Little Rock
TTITLE8=What Am I Gonna Do About You
TTITLE9=One Promise Too Late
EXTD=YEAR: 1987
EXTT0=
EXTT1=
EXTT2=
EXTT3=
EXTT4=
EXTT5=
EXTT6=
EXTT7=
EXTT8=
EXTT9=
PLAYORDER=
